<svg width="20" height="16" viewBox="0 0 20 16" fill="none" xmlns="http://www.w3.org/2000/svg">
<g clip-path="url(#clip0_3_349)">
<path fill-rule="evenodd" clip-rule="evenodd" d="M0 1.71429C0 0.767512 0.95939 0 2.14286 0H17.8571C19.0406 0 20 0.767512 20 1.71429V14.2857C20 15.2325 19.0406 16 17.8571 16H2.14286C0.95939 16 0 15.2325 0 14.2857V1.71429ZM7.07703 5.31017V10.8498C7.07763 10.9425 7.10886 11.0334 7.16753 11.1134C7.2262 11.1933 7.31024 11.2594 7.41114 11.3049C7.51203 11.3505 7.62619 11.3739 7.74204 11.3728C7.8579 11.3717 7.97133 11.3461 8.07083 11.2987L14.0016 8.52882C14.1015 8.48266 14.1844 8.4163 14.242 8.3364C14.2997 8.25649 14.33 8.16585 14.33 8.0736C14.33 7.98134 14.2997 7.89071 14.242 7.8108C14.1844 7.73089 14.1015 7.66453 14.0016 7.61837L8.07083 4.86136C7.97133 4.81389 7.8579 4.7883 7.74204 4.78719C7.62619 4.78609 7.51203 4.80951 7.41114 4.85506C7.31024 4.90063 7.2262 4.96673 7.16753 5.04665C7.10886 5.12657 7.07763 5.21749 7.07703 5.31017Z" fill="white"/>
</g>
<defs>
<clipPath id="clip0_3_349">
<rect width="20" height="16" fill="white"/>
</clipPath>
</defs>
</svg>
