<svg width="54" height="30" viewBox="0 0 54 30" fill="none" xmlns="http://www.w3.org/2000/svg">
<g clip-path="url(#clip0_7_97)">
<path d="M49.3854 0H3.9375C1.76042 0 0 0.966797 0 2.16211V27.832C0 29.0273 1.76042 30 3.9375 30H49.3854C51.5625 30 53.3333 29.0273 53.3333 27.8379V2.16211C53.3333 0.966797 51.5625 0 49.3854 0ZM15.8229 25.5645H7.90625V11.2441H15.8229V25.5645ZM11.8646 9.29297C9.32292 9.29297 7.27083 8.13867 7.27083 6.71484C7.27083 5.29102 9.32292 4.13672 11.8646 4.13672C14.3958 4.13672 16.4479 5.29102 16.4479 6.71484C16.4479 8.13281 14.3958 9.29297 11.8646 9.29297ZM45.4479 25.5645H37.5417V18.6035C37.5417 16.9453 37.4896 14.8066 33.4271 14.8066C29.3125 14.8066 28.6875 16.6172 28.6875 18.4863V25.5645H20.7917V11.2441H28.375V13.2012H28.4792C29.5312 12.0762 32.1146 10.8867 35.9583 10.8867C43.9688 10.8867 45.4479 13.8516 45.4479 17.707V25.5645Z" fill="black"/>
</g>
<defs>
<clipPath id="clip0_7_97">
<rect width="53.3333" height="30" fill="white"/>
</clipPath>
</defs>
</svg>
